#!OML:ASF C:\Vicon Data\Big\jianyuan-12\jianyuan\Session 1\Capture.male.ASF
:FULLY-SPECIFIED
:DEGREES
126
root -8.045488 16.992597 -13.626959 6.351549 3.474574 0.963467
lowerback -10.415230 2.251936 -3.730162 
upperback 2.039013 3.603562 -1.474463 
thorax 7.882490 1.611195 1.144801 
lowerneck -3.832315 -6.688785 -5.254223 
upperneck 7.277997 -9.418178 8.762606 
head 3.458271 -4.520031 3.068538 
rclavicle 0.000000 0.000000 
rhumerus -22.363790 -19.559064 -87.164827 
rradius 43.336003 
rwrist 24.148035 
rhand -19.436342 -5.638224 
rfingers 0.000000 
rthumb 6.883941 -35.506076 
lclavicle 0.000000 0.000000 
lhumerus -47.091330 35.724163 63.682845 
lradius 26.980354 
lwrist -52.931380 
lhand -7.768690 4.636874 
lfingers 0.000000 
lthumb 18.131384 33.811779 
rfemur 2.953229 1.092749 21.653371 
rtibia 24.135907 
rfoot -27.276272 -2.913915 
rtoes -13.214341 
lfemur -30.695590 -3.377002 -19.753819 
ltibia 16.587302 
lfoot -13.812201 8.589371 
ltoes -20.619495 
127
root -8.022991 16.996148 -13.538289 6.424792 3.354443 1.070208
lowerback -10.572449 2.240201 -3.813845 
upperback 1.974798 3.605802 -1.499311 
thorax 7.900562 1.608567 1.171506 
lowerneck -3.810203 -6.672529 -5.229325 
upperneck 7.385589 -9.395594 8.638733 
head 3.478111 -4.511500 3.027987 
rclavicle 0.000000 0.000000 
rhumerus -22.669966 -19.885436 -86.907578 
rradius 43.183545 
rwrist 25.354650 
rhand -18.722617 -5.252588 
rfingers 0.000000 
rthumb 7.572865 -35.096966 
lclavicle 0.000000 0.000000 
lhumerus -47.311794 35.802928 63.549979 
lradius 26.991728 
lwrist -53.132104 
lhand -7.774718 4.623846 
lfingers 0.000000 
lthumb 18.125630 33.799271 
rfemur 3.122600 1.215772 21.426713 
rtibia 24.266611 
rfoot -27.005400 -2.831274 
rtoes -13.045850 
lfemur -30.723325 -3.384022 -19.947057 
ltibia 17.023398 
lfoot -13.163243 8.646803 
ltoes -20.621716 
128
root -8.000444 16.999325 -13.450739 6.433768 3.210519 1.160514
lowerback -10.650758 2.297039 -3.861919 
upperback 1.928550 3.695561 -1.586067 
thorax 7.895033 1.651932 1.124150 
lowerneck -3.750264 -6.679559 -5.047348 
upperneck 7.404002 -9.416460 8.572830 
head 3.463609 -4.521383 2.980161 
rclavicle 0.000000 0.000000 
rhumerus -22.882506 -19.926459 -87.011411 
rradius 43.044452 
rwrist 24.906124 
rhand -19.108759 -5.475633 
rfingers 0.000000 
rthumb 7.200156 -35.333089 
lclavicle 0.000000 0.000000 
lhumerus -47.312861 35.666625 63.515258 
lradius 26.990739 
lwrist -53.127565 
lhand -7.734917 4.676746 
lfingers 0.000000 
lthumb 18.163922 33.848611 
rfemur 3.338241 1.252234 21.201663 
rtibia 24.416726 
rfoot -26.679074 -2.748621 
rtoes -13.370023 
lfemur -30.666516 -3.346669 -20.119937 
ltibia 17.420740 
lfoot -12.537740 8.759474 
ltoes -21.207391 
129
root -7.977079 17.002370 -13.361972 6.427178 3.047916 1.333415
lowerback -10.736010 2.327608 -4.028182 
upperback 1.906997 3.765485 -1.642739 
thorax 7.911777 1.678578 1.172134 
lowerneck -3.798539 -6.669812 -5.031645 
upperneck 7.507275 -9.412001 8.573616 
head 3.501594 -4.516142 2.974999 
rclavicle 0.000000 0.000000 
rhumerus -23.121149 -19.977750 -86.918423 
rradius 42.918896 
rwrist 24.892044 
rhand -19.129546 -5.464767 
rfingers 0.000000 
rthumb 7.180087 -35.322872 
lclavicle 0.000000 0.000000 
lhumerus -47.355517 35.773542 63.400776 
lradius 26.899441 
lwrist -53.366530 
lhand -7.836200 4.729635 
lfingers 0.000000 
lthumb 18.066463 33.910567 
rfemur 3.551718 1.332700 20.891160 
rtibia 24.612913 
rfoot -26.359065 -2.750572 
rtoes -14.102035 
lfemur -30.558605 -3.384913 -20.331948 
ltibia 17.760338 
lfoot -12.135976 8.821156 
ltoes -20.844974 
130
root -7.954014 17.006705 -13.272984 6.487032 2.929001 1.549493
lowerback -10.903054 2.299050 -4.247546 
upperback 1.875631 3.767040 -1.682232 
thorax 7.963486 1.668048 1.260181 
lowerneck -3.758503 -6.631368 -5.164784 
upperneck 7.530480 -9.362728 8.656655 
head 3.508506 -4.493188 3.024967 
rclavicle 0.000000 0.000000 
rhumerus -23.372536 -20.024406 -86.810223 
rradius 42.826336 
rwrist 25.135875 
rhand -19.009637 -5.508287 
rfingers 0.000000 
rthumb 7.295821 -35.362481 
lclavicle 0.000000 0.000000 
lhumerus -47.451952 35.860387 63.355117 
lradius 26.906169 
lwrist -53.333158 
lhand -7.823720 4.719705 
lfingers 0.000000 
lthumb 18.078475 33.899543 
rfemur 3.670292 1.422095 20.549339 
rtibia 24.863038 
rfoot -26.054801 -2.778839 
rtoes -14.656656 
lfemur -30.504029 -3.512272 -20.551089 
ltibia 18.056298 
lfoot -11.844303 8.959281 
ltoes -20.474070 
131
root -7.932980 17.012047 -13.186629 6.559076 2.807686 1.742346
lowerback -11.049610 2.287855 -4.443800 
upperback 1.840118 3.789667 -1.752093 
thorax 8.001424 1.669818 1.305683 
lowerneck -3.757125 -6.600723 -5.160935 
upperneck 7.544722 -9.325040 8.674082 
head 3.510519 -4.473897 3.031692 
rclavicle 0.000000 0.000000 
rhumerus -23.543227 -20.137591 -86.846601 
rradius 42.608685 
rwrist 25.160714 
rhand -19.275758 -5.579611 
rfingers 0.000000 
rthumb 7.038942 -35.442516 
lclavicle 0.000000 0.000000 
lhumerus -47.454364 35.853084 63.355196 
lradius 26.930310 
lwrist -53.210224 
lhand -7.797351 4.710942 
lfingers 0.000000 
lthumb 18.103833 33.888457 
rfemur 3.733505 1.543991 20.236948 
rtibia 25.177772 
rfoot -25.775645 -2.779330 
rtoes -15.057355 
lfemur -30.462174 -3.568915 -20.771748 
ltibia 18.304720 
lfoot -11.505707 9.034726 
ltoes -20.003294 
132
root -7.907538 17.013533 -13.100239 6.541108 2.932325 2.050206
lowerback -11.090947 2.170112 -4.733740 
upperback 1.831865 3.677888 -1.819555 
thorax 8.009878 1.602335 1.378423 
lowerneck -3.742693 -6.572321 -5.224085 
upperneck 7.586545 -9.287845 8.687026 
head 3.521470 -4.456579 3.047715 
rclavicle 0.000000 0.000000 
rhumerus -23.751814 -20.176686 -86.714372 
rradius 42.348140 
rwrist 25.435885 
rhand -19.404181 -5.513208 
rfingers 0.000000 
rthumb 6.914986 -35.380256 
lclavicle 0.000000 0.000000 
lhumerus -47.611838 36.144857 63.082826 
lradius 26.833746 
lwrist -53.449513 
lhand -7.821604 4.551333 
lfingers 0.000000 
lthumb 18.080461 33.730953 
rfemur 3.918809 1.434499 19.826811 
rtibia 25.541843 
rfoot -25.504695 -2.771230 
rtoes -15.345682 
lfemur -30.317168 -3.699584 -21.202398 
ltibia 18.548217 
lfoot -11.025619 8.920096 
ltoes -19.202543 
133
root -7.879939 17.014325 -13.011942 6.534962 3.065418 2.390271
lowerback -11.162313 2.063567 -5.042510 
upperback 1.824551 3.586768 -1.898684 
thorax 8.035513 1.543577 1.453992 
lowerneck -3.762103 -6.572786 -5.276695 
upperneck 7.681369 -9.292879 8.691396 
head 3.556110 -4.458485 3.055038 
rclavicle 0.000000 0.000000 
rhumerus -24.049367 -20.580936 -86.549459 
rradius 42.152404 
rwrist 26.159868 
rhand -19.314933 -5.308814 
rfingers 0.000000 
rthumb 7.001173 -35.173013 
lclavicle 0.000000 0.000000 
lhumerus -47.692753 36.226781 62.998789 
lradius 26.778419 
lwrist -53.744974 
lhand -7.916553 4.454314 
lfingers 0.000000 
lthumb 17.989083 33.642376 
rfemur 4.077788 1.295164 19.379833 
rtibia 25.940758 
rfoot -25.233172 -2.768299 
rtoes -15.832602 
lfemur -30.158487 -3.781701 -21.705951 
ltibia 18.820293 
lfoot -10.546841 8.785811 
ltoes -18.605106 
